<svg xmlns="http://www.w3.org/2000/svg" xmlns:xlink="http://www.w3.org/1999/xlink" width="270" height="92" viewBox="0 0 270 92"><defs><style>.a{fill:none;clip-rule:evenodd;}.b{clip-path:url(#a);}.c{fill:url(#b);}.d{fill:#363636;opacity:0.5;}.e{fill:#fff;}.f{fill:#212121;}.g{fill:url(#c);}</style><clipPath id="a"><path class="a" d="M30.872.359,77.325,20.011a4.5,4.5,0,0,1,2.724,3.658l4.12,38.121A4.49,4.49,0,0,1,82.052,66.1L41,91.329a4.532,4.532,0,0,1-5.323-.421L1.567,61.608a4.483,4.483,0,0,1-1.16-5.27L25,2.632A4.525,4.525,0,0,1,30.872.359Z" transform="translate(0 0)"/></clipPath><radialGradient id="b" cx="-0.002" cy="0.008" r="1.337" gradientTransform="translate(0 0) scale(1.105 1.015)" gradientUnits="objectBoundingBox"><stop offset="0" stop-color="#4d81d5"/><stop offset="0.515" stop-color="#2764c7"/><stop offset="1" stop-color="#0047ba"/></radialGradient><radialGradient id="c" cx="0.109" cy="0.139" r="1.114" gradientTransform="translate(0.031) scale(0.939 1)" gradientUnits="objectBoundingBox"><stop offset="0" stop-color="#4d81d5"/><stop offset="1" stop-color="#0047ba"/></radialGradient></defs><g transform="translate(-152 -30)"><g transform="translate(152 30)"><g transform="translate(0 0)"><g class="b"><rect class="c" width="85.804" height="94.415" transform="translate(-1.33 -1.354)"/></g></g><path class="d" d="M78.425,103.038H72L67.684,122.6l-3.595-19.56H56.563l6.679,31.191h7.823l4.116-17.778,4.2,17.778h7.85L93.9,103.038H86.4L82.8,122.6Zm37.792,31.191v-.367a10.5,10.5,0,0,1-.992-4.886V118.721a7.493,7.493,0,0,0-2.661-5.934,10.626,10.626,0,0,0-7.049-2.165,12.132,12.132,0,0,0-7.341,2.095,6.474,6.474,0,0,0-2.874,5.461h7.265a2.271,2.271,0,0,1,2.581-2.539q2.783,0,2.779,3.2v1.223h-2.239A14.361,14.361,0,0,0,97.541,122a6.467,6.467,0,0,0-2.8,5.7,6.271,6.271,0,0,0,2.313,4.974,8.3,8.3,0,0,0,5.6,1.981,6.755,6.755,0,0,0,5.592-2.508,7.962,7.962,0,0,0,.692,2.08h7.273ZM102.7,128.907a2.059,2.059,0,0,1-.674-1.6q0-3.384,3.794-3.388h2.116v3.709a3.643,3.643,0,0,1-1.285,1.308,4.11,4.11,0,0,1-2.255.582,2.434,2.434,0,0,1-1.7-.612Z" transform="translate(-39.531 -72.15)"/><path class="e" d="M76.425,101.038H70L65.684,120.6l-3.595-19.56H54.563l6.679,31.191h7.823l4.116-17.778,4.2,17.778h7.85L91.9,101.038H84.4L80.8,120.6Zm37.792,31.191v-.367a10.5,10.5,0,0,1-.992-4.886V116.721a7.493,7.493,0,0,0-2.661-5.934,10.626,10.626,0,0,0-7.049-2.165,12.132,12.132,0,0,0-7.341,2.095,6.474,6.474,0,0,0-2.874,5.461h7.265a2.271,2.271,0,0,1,2.581-2.539q2.783,0,2.779,3.2v1.223h-2.239A14.361,14.361,0,0,0,95.541,120a6.467,6.467,0,0,0-2.8,5.7,6.271,6.271,0,0,0,2.313,4.973,8.3,8.3,0,0,0,5.6,1.981,6.755,6.755,0,0,0,5.592-2.508,7.963,7.963,0,0,0,.692,2.08h7.273ZM100.7,126.907a2.059,2.059,0,0,1-.674-1.6q0-3.384,3.794-3.388h2.116v3.709a3.643,3.643,0,0,1-1.285,1.308,4.11,4.11,0,0,1-2.255.582,2.434,2.434,0,0,1-1.7-.612Z" transform="translate(-38.134 -70.75)"/></g><g transform="translate(244.864 57.487)"><path class="f" d="M316.1,115.712v13.062h-7.693V91.7h14.556a16.891,16.891,0,0,1,7.4,1.529,11.329,11.329,0,0,1,4.906,4.343,12.028,12.028,0,0,1,1.717,6.4,10.634,10.634,0,0,1-3.753,8.6q-3.753,3.153-10.4,3.145H316.1Zm0-6.184h6.872a6.788,6.788,0,0,0,4.651-1.425,5.175,5.175,0,0,0,1.607-4.075,5.741,5.741,0,0,0-6.068-6.138h-7.048v11.636Z" transform="translate(-308.407 -91.693)"/><path class="f" d="M434.827,129.191a20.084,20.084,0,0,0-2.666-.2q-4.206,0-5.511,2.825v18.031h-7.407V122.29h7l.2,3.287a6.863,6.863,0,0,1,6.177-3.795,7.769,7.769,0,0,1,2.306.332Z" transform="translate(-385.869 -112.762)"/><path class="f" d="M475.933,135.782a16.244,16.244,0,0,1,1.591-7.316A11.618,11.618,0,0,1,482.1,123.5a13.419,13.419,0,0,1,6.93-1.758,12.7,12.7,0,0,1,9.165,3.411,13.675,13.675,0,0,1,3.964,9.269l.053,1.887a14.334,14.334,0,0,1-3.559,10.173,13.863,13.863,0,0,1-19.128.013q-3.576-3.818-3.577-10.389v-.332Zm7.4.521a10.274,10.274,0,0,0,1.493,6.008,5.361,5.361,0,0,0,8.457.026q1.513-2.051,1.513-6.568a10.154,10.154,0,0,0-1.513-5.969,4.917,4.917,0,0,0-4.248-2.116,4.857,4.857,0,0,0-4.206,2.1q-1.492,2.1-1.5,6.516Z" transform="translate(-425.487 -112.728)"/><path class="f" d="M634.035,150.3a13.654,13.654,0,0,1-9.93-3.717,13.173,13.173,0,0,1-3.832-9.907v-.716a16.62,16.62,0,0,1,1.608-7.43,11.832,11.832,0,0,1,4.572-5.044,12.915,12.915,0,0,1,6.754-1.77,11.54,11.54,0,0,1,8.955,3.567q3.272,3.564,3.269,10.109V138.4H627.773a6.827,6.827,0,0,0,2.169,4.329,6.571,6.571,0,0,0,4.572,1.628,8.017,8.017,0,0,0,6.688-3.08l3.642,4.049a11.087,11.087,0,0,1-4.514,3.652A14.647,14.647,0,0,1,634.035,150.3Zm-.852-22.646a4.652,4.652,0,0,0-3.576,1.486,7.624,7.624,0,0,0-1.756,4.244h10.3V132.8a5.482,5.482,0,0,0-1.327-3.8,4.808,4.808,0,0,0-3.646-1.344Z" transform="translate(-526.357 -112.706)"/><path class="f" d="M726.63,144.4a4.882,4.882,0,0,0,3.33-1.119,3.917,3.917,0,0,0,1.329-2.981h6.944a9.394,9.394,0,0,1-1.54,5.129,10.109,10.109,0,0,1-4.14,3.619,13,13,0,0,1-5.8,1.289,12.068,12.068,0,0,1-9.38-3.756q-3.444-3.76-3.433-10.375v-.481a14.638,14.638,0,0,1,3.406-10.161,11.932,11.932,0,0,1,9.354-3.795,11.724,11.724,0,0,1,8.346,2.942,10.378,10.378,0,0,1,3.191,7.831h-6.944a5.052,5.052,0,0,0-1.329-3.5,4.971,4.971,0,0,0-7.005.2q-.15.158-.286.329-1.317,1.874-1.317,6.087v.768c0,2.838.439,4.882,1.31,6.119A4.511,4.511,0,0,0,726.63,144.4Z" transform="translate(-591.814 -112.743)"/><path class="f" d="M811.613,100.872v6.776h4.743v5.4h-4.743v13.757a3.244,3.244,0,0,0,.589,2.187,2.969,2.969,0,0,0,2.254.664,11.492,11.492,0,0,0,2.181-.182v5.578a15.308,15.308,0,0,1-4.487.664q-7.793,0-7.946-7.817V113.051h-4.048v-5.4H804.2v-6.776Z" transform="translate(-652.086 -98.12)"/><path class="g" d="M868.827,194.128a3.7,3.7,0,0,1,1.194-2.848,4.243,4.243,0,0,1,2.985-1.094,4.287,4.287,0,0,1,3.014,1.094,3.7,3.7,0,0,1,1.192,2.851,3.65,3.65,0,0,1-1.179,2.812,4.742,4.742,0,0,1-6.027,0A3.625,3.625,0,0,1,868.827,194.128Z" transform="translate(-700.078 -160.659)"/><g transform="translate(75.988 0)"><path class="f" d="M573.9,123.476v29.058a9.826,9.826,0,0,1-2.436,7.1,9.3,9.3,0,0,1-7.022,2.532,15.306,15.306,0,0,1-3.674-.43V155.9a13.651,13.651,0,0,0,2.332.229q3.36,0,3.361-3.544v-29.11Z" transform="translate(-560.768 -113.948)"/><path class="f" d="M578.1,95.637a3.7,3.7,0,0,1,1.194-2.847,4.24,4.24,0,0,1,2.985-1.094,4.284,4.284,0,0,1,3.014,1.094,3.7,3.7,0,0,1,1.192,2.851,3.651,3.651,0,0,1-1.179,2.812,4.743,4.743,0,0,1-6.027,0A3.626,3.626,0,0,1,578.1,95.637Z" transform="translate(-572.878 -91.693)"/></g></g></g></svg>